<svg width="128" height="64" viewBox="0 0 128 64" fill="none" xmlns="http://www.w3.org/2000/svg">
<path d="M0.00316771 35.2427C0.348506 35.249 0.693843 35.2616 1.03601 35.2616C42.9993 35.2616 84.9626 35.2616 126.926 35.2616C127.265 35.2616 127.607 35.2616 127.997 35.2616C127.997 36.9155 127.997 38.5155 127.997 40.1852C127.718 40.1978 127.439 40.2231 127.157 40.2231C85.0355 40.2263 42.9106 40.2263 0.788891 40.2231C0.525927 40.2231 0.262964 40.1852 0 40.1662C0.00316824 38.5219 0.00316771 36.8839 0.00316771 35.2427Z" fill="#EE1E24"/>
<path d="M0.00317383 0C42.6508 0 85.3016 0 128 0C128 1.59058 128 3.13689 128 4.78756C127.724 4.78756 127.442 4.78756 127.164 4.78756C85.0165 4.78756 42.8663 4.78756 0.719195 4.78756C0.481577 4.78756 0.24396 4.77174 0.00317383 4.76226C0.00317383 3.17484 0.00317383 1.58742 0.00317383 0Z" fill="#EE1E24"/>
<path d="M73.0279 7.60181C79.9346 7.60497 85.5361 13.221 85.5297 20.1304C85.5234 27.0335 79.8998 32.6875 73.031 32.6938C66.1718 32.7001 60.5292 27.0335 60.5228 20.1367C60.5197 13.2242 66.1369 7.59549 73.0279 7.60181ZM80.4954 20.1146C80.4922 16.0037 77.1339 12.6139 73.0469 12.5886C69.0105 12.5633 65.6015 15.9943 65.5888 20.0988C65.573 24.2349 68.9028 27.628 72.9898 27.6406C77.1371 27.6501 80.4986 24.2824 80.4954 20.1146Z" fill="black"/>
<path d="M108.252 7.87378C108.718 7.87378 109.162 7.87378 109.605 7.87378C112.178 7.87378 114.75 7.86429 117.326 7.87694C120.602 7.89275 123.216 9.13233 124.775 12.1048C126.787 15.9405 125.592 21.3447 120.913 23.2926C120.799 23.34 120.684 23.3875 120.491 23.4697C121.762 24.9812 122.978 26.4358 124.201 27.8873C125.427 29.3419 126.657 30.7933 127.952 32.3238C125.741 32.3238 123.618 32.3238 121.439 32.3238C118.768 29.1205 116.062 25.873 113.258 22.5084C113.258 25.854 113.258 29.0573 113.258 32.3207C111.56 32.3207 109.931 32.3207 108.255 32.3207C108.252 24.2191 108.252 16.0891 108.252 7.87378ZM113.239 19.0806C114.861 19.0806 116.404 19.1533 117.934 19.0616C119.56 18.9636 120.64 17.7366 120.703 16.1271C120.77 14.5049 119.81 13.1736 118.169 13.0123C116.55 12.8542 114.902 12.9776 113.239 12.9776C113.239 14.9919 113.239 17.0188 113.239 19.0806Z" fill="black"/>
<path d="M0.243937 24.1054C1.9136 24.1054 3.52306 24.1054 5.1452 24.1054C5.16421 24.1338 5.21174 24.1718 5.21807 24.2161C5.46836 26.6794 7.52138 28.2637 10.2873 27.783C12.9929 27.3308 13.7977 25.3481 13.6519 24.409C13.5094 23.4856 12.7933 23.1567 12.0203 23.0176C10.5629 22.7615 9.08649 22.6033 7.6196 22.3788C5.98162 22.1322 4.39116 21.7179 3.02882 20.7313C-0.180607 18.4103 -0.510104 13.3413 2.38883 10.4289C4.52106 8.28812 7.19822 7.53552 10.1637 7.69362C12.3213 7.80746 14.2634 8.49998 15.8634 9.99254C17.3778 11.4029 18.0399 13.1895 18.1857 15.3683C16.5414 15.3683 14.9446 15.3683 13.2622 15.3683C13.1704 13.92 12.1882 13.1136 10.7973 12.7626C9.14986 12.3452 7.55306 12.5413 6.20023 13.6227C4.87273 14.6821 5.20223 16.5983 6.83071 17.0442C8.22473 17.4268 9.69163 17.5533 11.13 17.781C13.0626 18.0877 14.9351 18.581 16.4717 19.8522C19.1963 22.1069 19.4942 26.4296 17.156 29.1902C13.6741 33.301 6.59309 33.7437 2.59477 30.123C0.836398 28.5293 0.155226 26.5403 0.243937 24.1054Z" fill="#EE1E24"/>
<path d="M87.3515 7.95288C89.0148 7.95288 90.6433 7.95288 92.3541 7.95288C92.3541 8.26594 92.3541 8.55054 92.3541 8.83197C92.3541 13.9895 92.3541 19.1439 92.3541 24.3014C92.3541 25.8287 92.9117 26.6066 94.3533 27.1727C95.8804 27.7735 97.398 27.7703 98.9187 27.1569C100.3 26.6003 100.867 25.7939 100.867 24.3204C100.87 19.1628 100.867 14.0085 100.867 8.85094C100.867 8.56635 100.867 8.27859 100.867 7.95604C102.565 7.95604 104.197 7.95604 105.911 7.95604C105.911 8.24697 105.911 8.5284 105.911 8.813C105.911 13.8093 105.778 18.8118 105.949 23.8049C106.12 28.7253 102.803 31.4258 99.3211 32.248C95.6269 33.1176 92.2654 32.4598 89.433 29.8257C88.0295 28.5198 87.3293 26.8406 87.3198 24.9402C87.2881 19.3874 87.3071 13.8346 87.3103 8.28175C87.3103 8.18372 87.3356 8.08253 87.3515 7.95288Z" fill="black"/>
<path d="M25.6152 27.4193C29.2618 27.4193 32.7817 27.4193 36.3428 27.4193C36.3428 29.089 36.3428 30.6953 36.3428 32.3428C31.1152 32.3428 25.9035 32.3428 20.6664 32.3428C20.6664 24.2002 20.6664 16.0892 20.6664 7.95288C22.3234 7.95288 23.936 7.95288 25.6152 7.95288C25.6152 14.4132 25.6152 20.8578 25.6152 27.4193Z" fill="#EE1E24"/>
<path d="M47.8024 20.0071C44.6944 15.9785 41.6243 12.0036 38.491 7.94019C40.6232 7.94019 42.6667 7.94019 44.7958 7.94019C47.5553 11.5894 50.3592 15.3018 53.1599 19.0047C53.1599 19.7383 53.1599 20.4498 53.1599 21.2403C50.1152 24.9211 47.0325 28.6494 43.9847 32.3333C41.8113 32.3333 39.7234 32.3333 37.4486 32.3333C40.9432 28.1719 44.349 24.1179 47.8024 20.0071Z" fill="black"/>
<path d="M53.8315 7.91821C55.5107 7.91821 57.0948 7.91821 58.7201 7.91821C58.7201 16.0608 58.7201 24.1655 58.7201 32.3145C57.0822 32.3145 55.479 32.3145 53.8315 32.3145C53.8315 24.175 53.8315 16.0703 53.8315 7.91821Z" fill="#EE1E24"/>
<path d="M127.569 48.4228C127.569 48.9859 127.569 49.4115 127.569 49.9354C122.785 49.9354 118.04 49.9354 113.213 49.9354C113.213 54.0573 113.213 58.0843 113.213 62.1931C118.111 62.1931 122.973 62.1931 127.907 62.1931C127.907 62.7169 127.907 63.1622 127.907 63.6631C122.528 63.6631 117.152 63.6631 111.708 63.6631C111.708 56.8336 111.708 50.0074 111.708 43.1157C112.14 43.1157 112.582 43.1157 113.122 43.1157C113.122 44.8738 113.122 46.6123 113.122 48.4261C117.968 48.4228 122.72 48.4228 127.569 48.4228Z" fill="#8D8F93"/>
<path d="M50.8533 43.4526C51.4279 43.4526 51.8405 43.4526 52.3103 43.4526C52.3103 50.1537 52.3103 56.8287 52.3103 63.5948C51.9072 63.6176 51.5263 63.6371 51.0724 63.6632C46.5553 56.9751 42.0478 50.3001 37.4609 43.508C38.1212 43.508 38.6577 43.508 39.3052 43.508C43.0668 49.0732 46.8823 54.723 50.701 60.3696C50.7518 60.3598 50.8025 60.3501 50.8533 60.337C50.8533 54.7458 50.8533 49.1513 50.8533 43.4526Z" fill="#8D8F93"/>
<path d="M63.5842 62.1345C68.6939 62.1345 73.6297 62.1345 78.6344 62.1345C78.6344 62.6744 78.6344 63.1428 78.6344 63.6632C73.1243 63.6632 67.6404 63.6632 62.0975 63.6632C62.0975 56.9307 62.0975 50.2274 62.0975 43.4526C62.5734 43.4526 63.023 43.4526 63.5842 43.4526C63.5842 49.642 63.5842 55.8248 63.5842 62.1345Z" fill="#8D8F93"/>
<path d="M95.3132 49.8429C95.3132 54.5243 95.3132 59.0608 95.3132 63.6631C94.7825 63.6631 94.3286 63.6631 93.8213 63.6631C93.8213 56.8206 93.8213 50.0011 93.8213 43.1157C94.2886 43.1157 94.7425 43.1157 95.2731 43.1157C95.2731 44.8453 95.2731 46.5419 95.2731 48.3539C99.6621 48.3539 103.974 48.3539 108.333 48.3539C108.333 48.8975 108.333 49.3257 108.333 49.8429C104.034 49.8429 99.7422 49.8429 95.3132 49.8429Z" fill="#8D8F93"/>
<path d="M85.3424 43.1157C85.9019 43.1157 86.2917 43.1157 86.7758 43.1157C86.7758 49.458 86.7758 55.7772 86.7758 62.2051C88.7183 62.2051 90.5728 62.2051 92.4713 62.2051C92.4713 62.7415 92.4713 63.1694 92.4713 63.6631C88.2185 63.6631 83.9657 63.6631 79.6469 63.6631C79.6469 63.2286 79.6469 62.7843 79.6469 62.238C81.5171 62.238 83.3747 62.238 85.3393 62.238C85.3424 55.8233 85.3424 49.5107 85.3424 43.1157Z" fill="#8D8F93"/>
<path d="M32.0612 43.4526C32.5365 43.4526 32.9484 43.4526 33.4111 43.4526C33.4111 50.2026 33.4111 56.91 33.4111 63.6632C32.9516 63.6632 32.5397 63.6632 32.0612 63.6632C32.0612 56.9427 32.0612 50.2353 32.0612 43.4526Z" fill="#8D8F93"/>
<path d="M26.2633 43.4526C27.1244 45.2215 27.6113 47.209 27.6113 49.314C27.6113 56.6342 21.7485 62.5673 14.5151 62.5673C7.28176 62.5673 1.41894 56.6342 1.41894 49.314C1.41894 47.209 1.9059 45.2215 2.76694 43.4526H1.2061C0.432133 45.2476 0 47.2286 0 49.314C0 57.4239 6.49812 64 14.5119 64C22.5257 64 29.0238 57.4239 29.0238 49.314C29.0238 47.2318 28.5917 45.2509 27.8177 43.4526H26.2633Z" fill="#8D8F93"/>
</svg>
